<svg xmlns="http://www.w3.org/2000/svg" viewBox="0 0 512 512"><path d="M448.165 40.107C425.84 14.244 394.884 0 361 0c-37.011 0-69.317 17.163-93.425 49.634-2.701 3.638-6.92 5.725-11.575 5.725-4.655 0-8.874-2.087-11.575-5.725C220.317 17.163 188.011 0 151 0c-33.884 0-64.84 14.244-87.165 40.107C42.661 64.637 31 97.369 31 132.273c0 39.62 15.242 77.89 46.598 116.998 29.295 36.539 72.96 74.027 133.402 114.537V512h90V363.808c60.442-40.51 104.107-77.998 133.402-114.537C465.758 210.163 481 171.893 481 132.273c0-34.904-11.661-67.636-32.835-92.166zM271 482h-30V376.971c4.951.999 9.974 1.51 15 1.51s10.049-.512 15-1.51V482zm10.598-141.302c-15.551 10.357-35.646 10.357-51.196 0-70.876-47.211-118.523-90.377-144.783-131.744C105.824 204.535 121 186.511 121 165c0-8.271 6.729-15 15-15s15 6.729 15 15v30c0 24.813 20.187 45 45 45s45-20.187 45-45v-30c0-8.271 6.729-15 15-15s15 6.729 15 15v30c0 24.813 20.187 45 45 45s45-20.187 45-45v-30c0-8.271 6.729-15 15-15s15 6.729 15 15c0 21.511 15.176 39.535 35.38 43.954-26.259 41.367-73.906 84.532-144.782 131.744zM436 180c-8.271 0-15-6.729-15-15 0-24.813-20.187-45-45-45s-45 20.187-45 45v30c0 8.271-6.729 15-15 15s-15-6.729-15-15v-30c0-24.813-20.187-45-45-45s-45 20.187-45 45v30c0 8.271-6.729 15-15 15s-15-6.729-15-15v-30c0-24.813-20.187-45-45-45s-45 20.187-45 45c0 8.271-6.729 15-15 15-2.049 0-4.033-.405-5.869-1.186C64.012 163.158 61 147.687 61 132.273 61 73.968 99.691 30 151 30c27.526 0 50.854 12.623 69.338 37.518C228.756 78.857 241.755 85.36 256 85.36s27.244-6.503 35.662-17.842C310.146 42.623 333.474 30 361 30c51.309 0 90 43.968 90 102.273 0 15.414-3.012 30.885-9.131 46.541A14.929 14.929 0 01436 180z"/></svg>