<svg aria-hidden="true" style="position: absolute; width: 0; height: 0; overflow: hidden;" version="1.1" xmlns="http://www.w3.org/2000/svg" xmlns:xlink="http://www.w3.org/1999/xlink">
<defs>
<symbol id="icon-dots" viewBox="0 0 256 32">
<path fill="#c7133e" style="fill: var(--color1, #c7133e)" d="M144 16c0 8.837-7.163 16-16 16s-16-7.163-16-16c0-8.837 7.163-16 16-16s16 7.163 16 16z"></path>
<path fill="#c7133e" style="fill: var(--color1, #c7133e)" d="M32 16c0 8.837-7.163 16-16 16s-16-7.163-16-16c0-8.837 7.163-16 16-16s16 7.163 16 16z"></path>
<path fill="#c7133e" style="fill: var(--color1, #c7133e)" d="M256 16c0 8.837-7.163 16-16 16s-16-7.163-16-16c0-8.837 7.163-16 16-16s16 7.163 16 16z"></path>
</symbol>
<symbol id="icon-apples" viewBox="0 0 32 32">
<path d="M29.626 21.411c-1.292-0.458-2.382-0.344-3.242 0.018 0.145-0.877 0.47-1.832 1.17-2.481 0.431-0.4 0.456-1.074 0.056-1.505s-1.074-0.456-1.505-0.056c-1.229 1.14-1.706 2.748-1.874 4.081-0.307-0.142-0.662-0.25-1.035-0.308l-0.023-0.003 1.89-9.83c0.012-0.061 0.019-0.13 0.019-0.201 0-0.588-0.477-1.065-1.065-1.065-0 0-0 0-0 0h-0.204c0.094-0.5 0.141-0.997 0.137-1.47-0.016-1.994-0.903-3.495-2.374-4.017-1.41-0.5-2.59-0.35-3.507 0.066 0.145-0.976 0.494-2.063 1.282-2.794 0.431-0.4 0.456-1.074 0.056-1.505s-1.074-0.456-1.505-0.056c-1.32 1.225-1.815 2.965-1.982 4.386-0.735-0.348-1.644-0.527-2.708-0.33-1.094-1.571-2.613-2.296-4.089-1.942-1.451 0.349-2.358 1.115-2.901 1.962-0.41-0.899-0.712-2.001-0.452-3.036 0.143-0.57-0.203-1.149-0.773-1.292s-1.149 0.203-1.292 0.773c-0.439 1.746 0.095 3.476 0.729 4.758-1.016 0.137-2.117 0.65-3.049 1.866-0.578 0.755-0.773 1.698-0.596 2.7-0.18 0.068-0.331 0.177-0.447 0.317l-0.001 0.002c-0.152 0.183-0.244 0.42-0.244 0.678 0 0.071 0.007 0.141 0.020 0.208l-0.001-0.007 3.809 19.809c0.098 0.495 0.529 0.864 1.046 0.864h15.237c0.517 0 0.948-0.368 1.045-0.857l0.001-0.007 0.038-0.195c0.287 0.198 0.596 0.363 0.927 0.487 1.266 0.471 2.447 0.278 3.044 0.118 0.409 0.113 0.879 0.178 1.364 0.179h0c0.506 0 1.084-0.075 1.68-0.297 2.36-0.879 3.614-3.839 3.596-6.178-0.015-1.904-0.866-3.339-2.276-3.839zM22.674 12.191c-0.49 4.705-4.452 7.91-9.971 7.91s-9.481-3.204-9.971-7.91h19.942zM16.032 7.515c0.184 0.349 0.536 0.567 0.93 0.567s0.746-0.218 0.93-0.567c0.029-0.048 0.29-0.466 0.769-0.777 0.629-0.408 1.35-0.46 2.203-0.157 0.851 0.302 0.952 1.518 0.956 2.027 0.004 0.463-0.064 0.962-0.191 1.453h-7.126c0.236-1.19 0.094-2.492-0.289-3.669 0.377 0.022 0.724 0.137 1.047 0.346 0.479 0.311 0.74 0.729 0.769 0.777zM3.078 8.724c0.55-0.719 1.182-1.068 1.932-1.069h0.002c0.57 0 1.016 0.208 1.066 0.232 0.341 0.19 0.749 0.172 1.079-0.037 0.331-0.211 0.51-0.591 0.481-0.983-0.006-0.077-0.115-1.893 1.983-2.397 0.876-0.211 1.625 0.754 1.906 1.178 0.807 1.22 1.221 3.108 0.777 4.413h-9.349c-0.141-0.443-0.179-0.943 0.122-1.336zM5.852 29.87l-2.111-10.978c0.132 0.127 0.272 0.254 0.414 0.378l0.013 0.011c2.208 1.901 5.239 2.948 8.535 2.948s6.328-1.047 8.535-2.948c0.052-0.044 0.102-0.090 0.152-0.135l-0.431 2.243c-0.020 0.007-0.041 0.013-0.061 0.021-1.41 0.5-2.261 1.935-2.276 3.839-0.009 1.164 0.297 2.483 0.898 3.622l-0.192 0.999h-13.477zM27.562 29.432c-0.943 0.351-1.881 0.017-1.916 0.005-0.25-0.097-0.518-0.099-0.768-0-0.009 0.004-0.96 0.352-1.917-0.005-1.338-0.498-2.223-2.556-2.21-4.165 0.004-0.466 0.095-1.578 0.858-1.849 0.349-0.124 0.661-0.175 0.939-0.175 1.107 0 1.657 0.812 1.782 1.024 0.184 0.35 0.535 0.569 0.931 0.569s0.747-0.219 0.931-0.569c0.156-0.265 0.977-1.468 2.721-0.849 0.763 0.271 0.854 1.383 0.858 1.849 0.013 1.609-0.872 3.667-2.21 4.166z"></path>
</symbol>
<symbol id="icon-ice-cream" viewBox="0 0 32 32">
<path d="M28.010 2.507c-1.395-1.616-3.33-2.507-5.448-2.507-2.313 0-4.332 1.073-5.839 3.102-0.169 0.227-0.433 0.358-0.723 0.358s-0.555-0.13-0.723-0.358c-1.507-2.029-3.526-3.102-5.839-3.102-2.118 0-4.053 0.89-5.448 2.507-1.323 1.533-2.052 3.579-2.052 5.76 0 2.476 0.953 4.868 2.912 7.312 1.831 2.284 4.56 4.627 8.338 7.159v9.262h5.625v-9.262c3.778-2.532 6.507-4.875 8.338-7.159 1.96-2.444 2.912-4.836 2.912-7.312 0-2.181-0.729-4.227-2.052-5.76zM16.938 30.125h-1.875v-6.564c0.309 0.062 0.623 0.094 0.938 0.094s0.628-0.032 0.938-0.094v6.564zM17.6 21.294c-0.972 0.647-2.228 0.647-3.2 0-4.43-2.951-7.408-5.649-9.049-8.234 1.263-0.276 2.211-1.403 2.211-2.747 0-0.517 0.421-0.938 0.938-0.938s0.938 0.421 0.938 0.938v1.875c0 1.551 1.262 2.813 2.813 2.813s2.813-1.262 2.813-2.813v-1.875c0-0.517 0.421-0.938 0.937-0.938s0.938 0.421 0.938 0.938v1.875c0 1.551 1.262 2.813 2.813 2.813s2.813-1.262 2.813-2.813v-1.875c0-0.517 0.421-0.938 0.938-0.938s0.938 0.421 0.938 0.938c0 1.344 0.948 2.471 2.211 2.747-1.641 2.585-4.619 5.283-9.049 8.234zM27.25 11.25c-0.517 0-0.938-0.421-0.938-0.938 0-1.551-1.262-2.813-2.813-2.813s-2.813 1.262-2.813 2.813v1.875c0 0.517-0.421 0.938-0.938 0.938s-0.938-0.421-0.938-0.938v-1.875c0-1.551-1.262-2.813-2.813-2.813s-2.813 1.262-2.813 2.813v1.875c0 0.517-0.421 0.938-0.938 0.938s-0.938-0.421-0.938-0.938v-1.875c0-1.551-1.262-2.813-2.813-2.813s-2.813 1.262-2.813 2.813c0 0.517-0.421 0.938-0.938 0.938-0.128 0-0.252-0.025-0.367-0.074-0.382-0.979-0.571-1.945-0.571-2.909 0-3.644 2.418-6.392 5.625-6.392 1.72 0 3.178 0.789 4.334 2.345 0.526 0.709 1.339 1.115 2.229 1.115s1.703-0.406 2.229-1.115c1.155-1.556 2.613-2.345 4.334-2.345 3.207 0 5.625 2.748 5.625 6.392 0 0.963-0.188 1.93-0.571 2.909-0.108 0.047-0.233 0.074-0.364 0.074-0.001 0-0.002 0-0.002 0h0z"></path>
</symbol>
<symbol id="icon-milk" viewBox="0 0 32 32">
<path d="M26.538 13.421c-0.192-0.231-0.48-0.378-0.802-0.378h-19.472c-0.574 0-1.040 0.466-1.040 1.040 0 0.069 0.007 0.137 0.020 0.203l-0.001-0.007 3.245 16.877c0.096 0.484 0.516 0.844 1.021 0.844 0 0 0 0 0 0h12.981c0 0 0 0 0 0 0.505 0 0.926-0.36 1.020-0.837l0.001-0.007 3.245-16.877c0.012-0.059 0.019-0.127 0.019-0.196 0-0.252-0.090-0.484-0.24-0.664l0.001 0.002zM24.344 15.123c-0.478 3.857-3.774 6.473-8.344 6.473s-7.866-2.616-8.344-6.473h16.688zM21.631 29.92h-11.263l-1.684-8.758c1.847 1.583 4.388 2.514 7.315 2.514s5.468-0.931 7.315-2.514l-1.684 8.758zM7.53 7.891c0.521 0.521 1.213 0.807 1.949 0.807s1.428-0.287 1.949-0.807l0.287-0.287c0.433 0.243 0.939 0.466 1.467 0.641l0.062 0.018v1.111c0 1.52 1.236 2.756 2.756 2.756s2.756-1.236 2.756-2.756v-1.111c0.59-0.192 1.096-0.415 1.574-0.682l-0.045 0.023 0.287 0.287c0.521 0.521 1.213 0.807 1.949 0.807s1.428-0.287 1.949-0.807c1.075-1.075 1.075-2.823 0-3.898l-0.347-0.347c0.503-0.732 0.811-1.256 0.811-2.606 0-0.574-0.466-1.040-1.040-1.040h-15.789c-0.574 0-1.040 0.466-1.040 1.040 0 1.35 0.308 1.874 0.811 2.606l-0.347 0.347c-1.075 1.075-1.075 2.823-0 3.898zM9.001 5.464l0.942-0.942c0.188-0.188 0.305-0.448 0.305-0.735 0-0.196-0.054-0.379-0.148-0.536l0.003 0.005c-0.192-0.323-0.364-0.574-0.503-0.776-0.11-0.16-0.195-0.284-0.26-0.399h13.322c-0.065 0.116-0.15 0.239-0.26 0.399-0.139 0.201-0.311 0.452-0.503 0.776-0.091 0.152-0.146 0.335-0.146 0.531 0 0.287 0.116 0.547 0.305 0.735l0.942 0.942c0.128 0.128 0.198 0.297 0.198 0.478s-0.070 0.35-0.198 0.478c-0.128 0.128-0.297 0.198-0.478 0.198s-0.35-0.070-0.478-0.198l-0.866-0.866c-0.188-0.188-0.448-0.305-0.736-0.305-0.219 0-0.422 0.068-0.59 0.183l0.003-0.002c-0.675 0.467-1.467 0.821-2.32 1.014l-0.045 0.009c-0.47 0.107-0.815 0.521-0.815 1.015 0 0 0 0 0 0v0 1.905c0 0.373-0.303 0.676-0.676 0.676s-0.676-0.303-0.676-0.676v-1.905c0 0 0 0 0-0 0-0.495-0.345-0.909-0.808-1.014l-0.007-0.001c-0.898-0.202-1.69-0.557-2.388-1.038l0.023 0.015c-0.164-0.113-0.367-0.181-0.585-0.181-0 0-0 0-0.001 0h0c-0.268 0-0.535 0.104-0.736 0.305l-0.866 0.866c-0.122 0.122-0.29 0.198-0.476 0.198-0.001 0-0.001 0-0.002 0h0c-0.001 0-0.001 0-0.002 0-0.186 0-0.354-0.076-0.476-0.198l-0-0c-0.128-0.128-0.198-0.297-0.198-0.478s0.070-0.351 0.198-0.478z"></path>
</symbol>
<symbol id="icon-right-arrow" viewBox="0 0 26 32">
<path fill="none" stroke="#d41443" style="stroke: var(--color2, #d41443)" stroke-linejoin="round" stroke-linecap="round" stroke-miterlimit="4" stroke-width="6.4" d="M5.171 3.2l14.17 12.8-14.17 12.8"></path>
</symbol>
</defs>
</svg>
