<svg xmlns="http://www.w3.org/2000/svg" viewBox="0 0 297 297"><path d="M246.303 124.56a9.656 9.656 0 00-7.443-3.506H58.14a9.656 9.656 0 00-9.48 11.477L78.78 289.17a9.653 9.653 0 009.48 7.83h120.48a9.653 9.653 0 009.48-7.83l30.12-156.639a9.655 9.655 0 00-2.037-7.971zm-20.359 15.801c-4.44 35.8-35.025 60.076-77.444 60.076s-73.003-24.276-77.444-60.076h154.888zm-25.178 137.332H96.234l-15.63-81.286c17.144 14.692 40.724 23.336 67.896 23.336s50.752-8.644 67.896-23.336l-15.63 81.286zM69.884 73.237c4.831 4.832 11.255 7.494 18.089 7.494 6.833 0 13.257-2.661 18.09-7.493l2.66-2.661a81.931 81.931 0 0014.195 6.114v10.314c0 14.106 11.476 25.581 25.581 25.581s25.581-11.476 25.581-25.581V76.691a81.898 81.898 0 0014.195-6.114l2.66 2.661c4.832 4.831 11.257 7.493 18.09 7.493 6.834 0 13.257-2.661 18.089-7.493 9.974-9.974 9.974-26.204 0-36.178l-3.22-3.22c4.669-6.797 7.528-11.655 7.528-24.186 0-5.331-4.322-9.653-9.653-9.653H75.23c-5.331 0-9.653 4.322-9.653 9.653 0 12.531 2.858 17.389 7.528 24.186l-3.22 3.22c-9.975 9.974-9.975 26.204-.001 36.177zm13.653-22.525l8.747-8.747a9.655 9.655 0 001.475-11.753c-1.781-3.001-3.382-5.328-4.668-7.199-1.023-1.488-1.811-2.634-2.413-3.707h123.644c-.602 1.073-1.391 2.219-2.413 3.707-1.287 1.87-2.888 4.198-4.668 7.199a9.655 9.655 0 001.475 11.753l8.747 8.747c1.185 1.185 1.838 2.76 1.838 4.436s-.653 3.251-1.838 4.437c-1.185 1.185-2.76 1.837-4.436 1.837s-3.252-.652-4.437-1.838l-8.035-8.035a9.656 9.656 0 00-12.266-1.149 62.996 62.996 0 01-21.952 9.495 9.653 9.653 0 00-7.562 9.424v17.684c0 3.46-2.815 6.275-6.275 6.275s-6.275-2.815-6.275-6.275V69.321a9.653 9.653 0 00-7.562-9.424 63.015 63.015 0 01-21.952-9.495 9.629 9.629 0 00-5.437-1.678c-2.49 0-4.962.961-6.829 2.827l-8.035 8.035a6.23 6.23 0 01-4.437 1.838 6.228 6.228 0 01-4.436-1.838c-1.185-1.185-1.838-2.76-1.838-4.436s.653-3.253 1.838-4.438z"/></svg>